/* XPM */
static char *apt-dater[] = {
/* columns rows colors chars-per-pixel */
"32 32 220 2",
"   c black",
".  c #010101",
"X  c #020202",
"o  c gray1",
"O  c #040404",
"+  c gray3",
"@  c #090909",
"#  c gray4",
"$  c #0B0B0B",
"%  c #0C0C0C",
"&  c gray5",
"*  c #0E0E0E",
"=  c #101010",
"-  c #111111",
";  c gray7",
":  c #131313",
">  c #151515",
",  c #1B1B1B",
"<  c gray11",
"1  c gray12",
"2  c #00013F",
"3  c #3F011E",
"4  c #3D081E",
"5  c #3D0A1D",
"6  c #3C1F1F",
"7  c #36271A",
"8  c #39261D",
"9  c #202020",
"0  c #222222",
"q  c #232323",
"w  c #252525",
"e  c gray15",
"r  c #272727",
"t  c #282828",
"y  c gray16",
"u  c gray17",
"i  c #2C2C2C",
"p  c #2D2D2D",
"a  c gray18",
"s  c #2F2F2F",
"d  c gray19",
"f  c #313131",
"g  c #323232",
"h  c gray20",
"j  c #353535",
"k  c gray21",
"l  c gray22",
"z  c #3A3A3A",
"x  c gray23",
"c  c #3C3C3C",
"v  c #3F3F3F",
"b  c #000040",
"n  c #00067C",
"m  c #00087B",
"M  c #00097B",
"N  c #000A7A",
"B  c #000B7A",
"V  c #000C79",
"C  c #000D79",
"Z  c #000E78",
"A  c #001077",
"S  c #001177",
"D  c #001276",
"F  c #001475",
"G  c #001B72",
"H  c #001C71",
"J  c #001D71",
"K  c #001E70",
"L  c #00206F",
"P  c #00216F",
"I  c #00236E",
"U  c #00246D",
"Y  c #00276C",
"T  c #00296B",
"R  c #002A6A",
"E  c #002B6A",
"W  c #002D69",
"Q  c #002F68",
"!  c #003167",
"~  c #003266",
"^  c #003366",
"/  c #003664",
"(  c #003A62",
")  c #003D61",
"_  c #00415F",
"`  c #00475C",
"'  c #00604F",
"]  c #00624E",
"[  c #00654D",
"{  c #00664C",
"}  c #00684B",
"|  c #006B4A",
" . c #006C49",
".. c #006E48",
"X. c #007047",
"o. c #007147",
"O. c #007545",
"+. c #007644",
"@. c #007744",
"#. c #007943",
"$. c #007B42",
"%. c #007D41",
"&. c #007E40",
"*. c #40001F",
"=. c #40011F",
"-. c #410220",
";. c #420321",
":. c #434343",
">. c #444444",
",. c gray27",
"<. c #464646",
"1. c gray28",
"2. c #484848",
"3. c gray29",
"4. c #4B4B4B",
"5. c #4C4C4C",
"6. c #4E4E4E",
"7. c #505050",
"8. c #515151",
"9. c gray33",
"0. c gray34",
"q. c #585858",
"w. c #5A5A5A",
"e. c #5B5B5B",
"r. c gray36",
"t. c #5D5D5D",
"y. c gray37",
"u. c #5F5F5F",
"i. c #606060",
"p. c gray38",
"a. c #626262",
"s. c gray39",
"d. c #646464",
"f. c #656565",
"g. c gray40",
"h. c #676767",
"j. c DimGray",
"k. c #6A6A6A",
"l. c #6C6C6C",
"z. c gray43",
"x. c #6F6F6F",
"c. c #717171",
"v. c #727272",
"b. c gray45",
"n. c #747474",
"m. c gray46",
"M. c #777777",
"N. c gray48",
"B. c #7C7C7C",
"V. c gray50",
"C. c navy",
"Z. c #00803F",
"A. c #00823E",
"S. c #00843D",
"D. c #00893B",
"F. c #008F38",
"G. c #009236",
"H. c #009B32",
"J. c #009C31",
"K. c #00A12F",
"L. c #00A72C",
"P. c #00B027",
"I. c #00B127",
"U. c #00B923",
"Y. c #800000",
"T. c #850B0B",
"R. c #850C0C",
"E. c #942929",
"W. c #952C2C",
"Q. c #962E2E",
"!. c #973030",
"~. c #983131",
"^. c #993333",
"/. c #9A3535",
"(. c #9A3636",
"). c #9D3B3B",
"_. c #9E3D3D",
"`. c #A04242",
"'. c #A14343",
"]. c #A14444",
"[. c #A24646",
"{. c #A34747",
"}. c #A44949",
"|. c #A44A4A",
" X c #A54B4B",
".X c #A54C4C",
"XX c #A74F4F",
"oX c #A85151",
"OX c #A95353",
"+X c #AC5A5A",
"@X c #AD5C5C",
"#X c #AE5D5D",
"$X c #AF6060",
"%X c #B26565",
"&X c #B36767",
"*X c #B46969",
"=X c #B56B6B",
"-X c #B56C6C",
";X c #B87171",
":X c #B97373",
">X c #BA7676",
",X c #808080",
"<X c #818181",
"1X c #848484",
"2X c gray53",
"3X c #888888",
"4X c gray54",
"5X c gray55",
"6X c #8E8E8E",
"7X c gray56",
"8X c #939393",
"9X c gray60",
"0X c #9B9B9B",
"qX c gray62",
"wX c #A2A2A2",
"eX c #A9A9A9",
"rX c #AAAAAA",
"tX c #B9B9B9",
"yX c gray73",
"uX c #C28686",
/* pixels */
"B C B B B R W K R / m B ^ D n G n C B C M B T J n n C.C.C.C.C.C.",
"F. .} &.K.[ +.L ` O.} U.{ U.U ) ] X.I.S.D.' ] G.C.C.C.C.C.C.C.C.",
"4 6 =.8 =.3 =.=.=.=.=.3 =.7 =.4 =.=.3 =.=.=.=.=.;.=.=.=.=.=.=.=.",
"Y.#XT.+X@X#X=X}.=X%X>X+XXXE.'.].=XOXXX:X&X#XXXQ.Y.Y.Y.Y.Y.Y.Y.Y.",
"Y.}.R.].W./.uX_.].#X_.'.^.!.#X_.oX^.}.}.].].>X(.Y.Y.Y.Y.Y.Y.Y.Y.",
"  z & p p p ;   f $   ; p % f $                                 ",
"  8.  e.e.d.tXq V.8Xr 5XN.<X<XtX                                ",
"  r & ,     r                                                   ",
"  t.$ e.e.u.e.t.N.4.8.r b.t.M.8.u a.0.y.<.3.h.>.l.&             ",
"  4.% :.p j :.8.z 8.z p p f :.x q k >.k c <.3.s 0X$             ",
"  z % f z p $ :.; $ O p > O & & $ * + u $ $ q >                 ",
"  6.  e.z.k.tXz.M.0Xb.V.1Xu d.wX6X<Xx.5Xa.2XrXu                 ",
"  r & ,             O           + <                             ",
"  t.$ e.t.u.1 8.0.z.u.6.6.6.0X&                                 ",
"  4.& :.f x q p x :.f p j :.4.;                                 ",
"  z $ f f 1 $ ; & u $ O $ ;                                     ",
"  6.  e.e.d.eX8Xn.<Xb.1XM.qX                                    ",
"  r & ,       .                                                 ",
"  t.$ e.t.e.b.n.:.u.4.6.e.0.c                                   ",
"  4.& :.u j 6.<.:.:.x z t.f f                                   ",
"                                                                ",
"                                                                ",
"                                                                ",
"                                                                ",
"                                                                ",
"                                                                ",
"                      .                     . .   .             ",
"_ C W W B C W D n P S n S ! S T S M S C.C.C.C.C.n C.C.C.C.C.C.C.",
"Z.W #.O.L.Z.&.X.( ' I.J H.$.&.S.X.X.H.P ! B n C.C.C.C.C.C.C.C.C.",
"2 b b b b 2 b b b b b b b b b b b b b b b b b b b b b b b b b b ",
"                                                                ",
"                                                                "
};
